<mxfile host="app.diagrams.net" modified="2021-11-16T00:21:21.269Z" agent="5.0 (X11)" etag="xR0BdSOXw_P96fkvDPhw" version="15.7.3" type="github" pages="3">
  <diagram id="VKRj_P7hgSLzCelCU6Lf" name="UseCases">
    <mxGraphModel dx="1673" dy="933" grid="1" gridSize="10" guides="1" tooltips="1" connect="1" arrows="1" fold="1" page="1" pageScale="1" pageWidth="850" pageHeight="1100" background="none" math="0" shadow="0">
      <root>
        <mxCell id="0" />
        <mxCell id="1" parent="0" />
        <mxCell id="UhxKZV5baIiaWPrjlFyv-1" value="Local System" style="swimlane;startSize=0;verticalAlign=top;fillColor=#FAE5C7;strokeColor=#0F8B8D;fontColor=#143642;" parent="1" vertex="1">
          <mxGeometry x="140" y="600" width="600" height="320" as="geometry">
            <mxRectangle x="120" y="120" width="150" height="20" as="alternateBounds" />
          </mxGeometry>
        </mxCell>
        <mxCell id="UhxKZV5baIiaWPrjlFyv-62" value="Send Data" style="ellipse;whiteSpace=wrap;html=1;fillColor=#FAE5C7;strokeColor=#0F8B8D;fontColor=#143642;" parent="UhxKZV5baIiaWPrjlFyv-1" vertex="1">
          <mxGeometry x="370" y="150" width="90" height="50" as="geometry" />
        </mxCell>
        <mxCell id="UhxKZV5baIiaWPrjlFyv-36" value="&amp;lt;&amp;lt;include&amp;gt;&amp;gt;" style="edgeStyle=none;rounded=0;orthogonalLoop=1;jettySize=auto;html=1;entryX=0;entryY=0.5;entryDx=0;entryDy=0;dashed=1;endArrow=open;endFill=0;labelBackgroundColor=none;strokeColor=#A8201A;fontColor=#143642;" parent="1" source="UhxKZV5baIiaWPrjlFyv-37" target="UhxKZV5baIiaWPrjlFyv-42" edge="1">
          <mxGeometry relative="1" as="geometry" />
        </mxCell>
        <mxCell id="UhxKZV5baIiaWPrjlFyv-37" value="Trigger motion detector" style="ellipse;whiteSpace=wrap;html=1;fillColor=#FAE5C7;strokeColor=#0F8B8D;fontColor=#143642;" parent="1" vertex="1">
          <mxGeometry x="170" y="660" width="100" height="60" as="geometry" />
        </mxCell>
        <mxCell id="UhxKZV5baIiaWPrjlFyv-39" value="Camera Frame" style="ellipse;whiteSpace=wrap;html=1;fillColor=#FAE5C7;strokeColor=#0F8B8D;fontColor=#143642;" parent="1" vertex="1">
          <mxGeometry x="405" y="850" width="80" height="40" as="geometry" />
        </mxCell>
        <mxCell id="UhxKZV5baIiaWPrjlFyv-40" value="Image Processing" style="ellipse;whiteSpace=wrap;html=1;fillColor=#FAE5C7;strokeColor=#0F8B8D;fontColor=#143642;" parent="1" vertex="1">
          <mxGeometry x="590" y="850" width="90" height="40" as="geometry" />
        </mxCell>
        <mxCell id="UhxKZV5baIiaWPrjlFyv-42" value="Lamppost Light Up" style="ellipse;whiteSpace=wrap;html=1;fillColor=#FAE5C7;strokeColor=#0F8B8D;fontColor=#143642;" parent="1" vertex="1">
          <mxGeometry x="400" y="665" width="90" height="50" as="geometry" />
        </mxCell>
        <mxCell id="UhxKZV5baIiaWPrjlFyv-47" value="Clears a parking space" style="ellipse;whiteSpace=wrap;html=1;fillColor=#FAE5C7;strokeColor=#0F8B8D;fontColor=#143642;" parent="1" vertex="1">
          <mxGeometry x="165" y="840" width="110" height="60" as="geometry" />
        </mxCell>
        <mxCell id="UhxKZV5baIiaWPrjlFyv-49" value="Remote System" style="shape=umlActor;verticalLabelPosition=bottom;verticalAlign=top;html=1;outlineConnect=0;fillColor=#FAE5C7;strokeColor=#0F8B8D;fontColor=#143642;" parent="1" vertex="1">
          <mxGeometry x="780" y="780" width="30" height="60" as="geometry" />
        </mxCell>
        <mxCell id="UhxKZV5baIiaWPrjlFyv-50" style="edgeStyle=none;rounded=0;orthogonalLoop=1;jettySize=auto;html=1;exitX=1;exitY=0.3333333333333333;exitDx=0;exitDy=0;exitPerimeter=0;entryX=0;entryY=0.5;entryDx=0;entryDy=0;endArrow=none;endFill=0;labelBackgroundColor=#DAD2D8;strokeColor=#A8201A;fontColor=#143642;" parent="1" source="UhxKZV5baIiaWPrjlFyv-52" target="UhxKZV5baIiaWPrjlFyv-37" edge="1">
          <mxGeometry relative="1" as="geometry" />
        </mxCell>
        <mxCell id="UhxKZV5baIiaWPrjlFyv-51" style="edgeStyle=none;rounded=0;orthogonalLoop=1;jettySize=auto;html=1;entryX=0;entryY=0.5;entryDx=0;entryDy=0;endArrow=none;endFill=0;exitX=1;exitY=0.3333333333333333;exitDx=0;exitDy=0;exitPerimeter=0;labelBackgroundColor=#DAD2D8;strokeColor=#A8201A;fontColor=#143642;" parent="1" source="UhxKZV5baIiaWPrjlFyv-52" target="UhxKZV5baIiaWPrjlFyv-47" edge="1">
          <mxGeometry relative="1" as="geometry">
            <mxPoint x="160" y="930" as="targetPoint" />
          </mxGeometry>
        </mxCell>
        <mxCell id="UhxKZV5baIiaWPrjlFyv-52" value="Steet Passerby" style="shape=umlActor;verticalLabelPosition=bottom;verticalAlign=top;html=1;outlineConnect=0;fillColor=#FAE5C7;strokeColor=#0F8B8D;fontColor=#143642;" parent="1" vertex="1">
          <mxGeometry x="50" y="740" width="30" height="60" as="geometry" />
        </mxCell>
        <mxCell id="UhxKZV5baIiaWPrjlFyv-57" value="&amp;lt;&amp;lt;extend&amp;gt;&amp;gt;" style="edgeStyle=none;rounded=0;orthogonalLoop=1;jettySize=auto;html=1;entryX=1;entryY=0.5;entryDx=0;entryDy=0;dashed=1;exitX=0;exitY=0.5;exitDx=0;exitDy=0;endArrow=open;endFill=0;labelBackgroundColor=none;strokeColor=#A8201A;fontColor=#143642;" parent="1" source="UhxKZV5baIiaWPrjlFyv-39" target="UhxKZV5baIiaWPrjlFyv-47" edge="1">
          <mxGeometry relative="1" as="geometry">
            <mxPoint x="330" y="950" as="sourcePoint" />
            <mxPoint x="330" y="859" as="targetPoint" />
          </mxGeometry>
        </mxCell>
        <mxCell id="OXlPUjwkilmwGto4ibfJ-2" style="edgeStyle=none;rounded=0;orthogonalLoop=1;jettySize=auto;html=1;entryX=0;entryY=0.3333333333333333;entryDx=0;entryDy=0;entryPerimeter=0;endArrow=none;endFill=0;labelBackgroundColor=#DAD2D8;strokeColor=#A8201A;fontColor=#143642;" edge="1" parent="1" source="UhxKZV5baIiaWPrjlFyv-60" target="OXlPUjwkilmwGto4ibfJ-1">
          <mxGeometry relative="1" as="geometry" />
        </mxCell>
        <mxCell id="UhxKZV5baIiaWPrjlFyv-60" value="Turn-on the lamp" style="ellipse;whiteSpace=wrap;html=1;fillColor=#FAE5C7;strokeColor=#0F8B8D;fontColor=#143642;" parent="1" vertex="1">
          <mxGeometry x="620" y="660" width="95" height="60" as="geometry" />
        </mxCell>
        <mxCell id="UhxKZV5baIiaWPrjlFyv-71" style="rounded=0;orthogonalLoop=1;jettySize=auto;html=1;exitX=1;exitY=0.5;exitDx=0;exitDy=0;endArrow=none;endFill=0;entryX=0;entryY=0.3333333333333333;entryDx=0;entryDy=0;entryPerimeter=0;labelBackgroundColor=#DAD2D8;strokeColor=#A8201A;fontColor=#143642;" parent="1" source="UhxKZV5baIiaWPrjlFyv-62" target="UhxKZV5baIiaWPrjlFyv-49" edge="1">
          <mxGeometry relative="1" as="geometry">
            <mxPoint x="780" y="780" as="targetPoint" />
          </mxGeometry>
        </mxCell>
        <mxCell id="UhxKZV5baIiaWPrjlFyv-64" value="&amp;lt;&amp;lt;include&amp;gt;&amp;gt;" style="edgeStyle=none;rounded=0;orthogonalLoop=1;jettySize=auto;html=1;entryX=1;entryY=0.5;entryDx=0;entryDy=0;dashed=1;exitX=0;exitY=0.5;exitDx=0;exitDy=0;endArrow=open;endFill=0;labelBackgroundColor=none;strokeColor=#A8201A;fontColor=#143642;" parent="1" source="UhxKZV5baIiaWPrjlFyv-40" target="UhxKZV5baIiaWPrjlFyv-39" edge="1">
          <mxGeometry relative="1" as="geometry">
            <mxPoint x="280" y="700" as="sourcePoint" />
            <mxPoint x="410" y="700" as="targetPoint" />
          </mxGeometry>
        </mxCell>
        <mxCell id="UhxKZV5baIiaWPrjlFyv-67" value="&amp;lt;&amp;lt;include&amp;gt;&amp;gt;" style="edgeStyle=none;rounded=0;orthogonalLoop=1;jettySize=auto;html=1;entryX=0;entryY=0;entryDx=0;entryDy=0;dashed=1;exitX=1;exitY=1;exitDx=0;exitDy=0;endArrow=open;endFill=0;labelBackgroundColor=none;strokeColor=#A8201A;fontColor=#143642;" parent="1" source="UhxKZV5baIiaWPrjlFyv-42" target="UhxKZV5baIiaWPrjlFyv-62" edge="1">
          <mxGeometry relative="1" as="geometry">
            <mxPoint x="500" y="700" as="sourcePoint" />
            <mxPoint x="640" y="700" as="targetPoint" />
          </mxGeometry>
        </mxCell>
        <mxCell id="UhxKZV5baIiaWPrjlFyv-72" value="&amp;lt;&amp;lt;include&amp;gt;&amp;gt;" style="edgeStyle=none;rounded=0;orthogonalLoop=1;jettySize=auto;html=1;entryX=1;entryY=1;entryDx=0;entryDy=0;dashed=1;exitX=0.5;exitY=0;exitDx=0;exitDy=0;endArrow=open;endFill=0;labelBackgroundColor=none;strokeColor=#A8201A;fontColor=#143642;" parent="1" source="UhxKZV5baIiaWPrjlFyv-40" target="UhxKZV5baIiaWPrjlFyv-62" edge="1">
          <mxGeometry relative="1" as="geometry">
            <mxPoint x="510" y="710" as="sourcePoint" />
            <mxPoint x="650" y="710" as="targetPoint" />
          </mxGeometry>
        </mxCell>
        <mxCell id="UhxKZV5baIiaWPrjlFyv-73" value="&amp;lt;&amp;lt;include&amp;gt;&amp;gt;" style="edgeStyle=none;rounded=0;orthogonalLoop=1;jettySize=auto;html=1;entryX=1;entryY=0.5;entryDx=0;entryDy=0;dashed=1;endArrow=open;endFill=0;exitX=0;exitY=0.5;exitDx=0;exitDy=0;labelBackgroundColor=none;strokeColor=#A8201A;fontColor=#143642;" parent="1" source="UhxKZV5baIiaWPrjlFyv-60" target="UhxKZV5baIiaWPrjlFyv-42" edge="1">
          <mxGeometry relative="1" as="geometry">
            <mxPoint x="280" y="700" as="sourcePoint" />
            <mxPoint x="410" y="700" as="targetPoint" />
          </mxGeometry>
        </mxCell>
        <mxCell id="OXlPUjwkilmwGto4ibfJ-1" value="Other Local System" style="shape=umlActor;verticalLabelPosition=bottom;verticalAlign=top;html=1;outlineConnect=0;fillColor=#FAE5C7;strokeColor=#0F8B8D;fontColor=#143642;" vertex="1" parent="1">
          <mxGeometry x="780" y="670" width="30" height="60" as="geometry" />
        </mxCell>
      </root>
    </mxGraphModel>
  </diagram>
  <diagram id="n0Fl6GXJW6wCgdXvjiLA" name="StateChart">
    <mxGraphModel dx="1422" dy="793" grid="1" gridSize="10" guides="1" tooltips="1" connect="1" arrows="1" fold="1" page="1" pageScale="1" pageWidth="850" pageHeight="1100" background="none" math="0" shadow="0">
      <root>
        <mxCell id="OwLx9ksk2gSbWlh4JtMf-0" />
        <mxCell id="OwLx9ksk2gSbWlh4JtMf-1" parent="OwLx9ksk2gSbWlh4JtMf-0" />
        <mxCell id="W-xhEfi5Vv7jOIvLi4YA-5" style="edgeStyle=orthogonalEdgeStyle;rounded=0;orthogonalLoop=1;jettySize=auto;html=1;exitX=0.5;exitY=1;exitDx=0;exitDy=0;entryX=0.5;entryY=0;entryDx=0;entryDy=0;endArrow=classic;endFill=1;labelBackgroundColor=#DAD2D8;strokeColor=#A8201A;fontColor=#143642;" parent="OwLx9ksk2gSbWlh4JtMf-1" source="W-xhEfi5Vv7jOIvLi4YA-0" target="b9bzMtO-1qeasKwuusVg-0" edge="1">
          <mxGeometry relative="1" as="geometry">
            <mxPoint x="450" y="140" as="targetPoint" />
          </mxGeometry>
        </mxCell>
        <mxCell id="W-xhEfi5Vv7jOIvLi4YA-0" value="" style="ellipse;whiteSpace=wrap;html=1;aspect=fixed;fillColor=#FAE5C7;strokeColor=#0F8B8D;fontColor=#143642;strokeWidth=2;" parent="OwLx9ksk2gSbWlh4JtMf-1" vertex="1">
          <mxGeometry x="430" y="70" width="40" height="40" as="geometry" />
        </mxCell>
        <mxCell id="W-xhEfi5Vv7jOIvLi4YA-4" style="edgeStyle=orthogonalEdgeStyle;rounded=0;orthogonalLoop=1;jettySize=auto;html=1;exitX=0.5;exitY=1;exitDx=0;exitDy=0;endArrow=classic;endFill=1;entryX=0.5;entryY=0;entryDx=0;entryDy=0;labelBackgroundColor=#DAD2D8;strokeColor=#A8201A;fontColor=#143642;" parent="OwLx9ksk2gSbWlh4JtMf-1" source="b9bzMtO-1qeasKwuusVg-0" edge="1" target="W-xhEfi5Vv7jOIvLi4YA-9">
          <mxGeometry relative="1" as="geometry">
            <mxPoint x="450" y="230" as="targetPoint" />
            <mxPoint x="450" y="180" as="sourcePoint" />
          </mxGeometry>
        </mxCell>
        <mxCell id="A8Cqn2Xo1SjwjiJ984Io-9" style="edgeStyle=orthogonalEdgeStyle;rounded=0;orthogonalLoop=1;jettySize=auto;html=1;exitX=0.5;exitY=1;exitDx=0;exitDy=0;entryX=0.5;entryY=0;entryDx=0;entryDy=0;endArrow=classic;endFill=1;labelBackgroundColor=#DAD2D8;strokeColor=#A8201A;fontColor=#143642;" parent="OwLx9ksk2gSbWlh4JtMf-1" source="W-xhEfi5Vv7jOIvLi4YA-9" target="W-xhEfi5Vv7jOIvLi4YA-10" edge="1">
          <mxGeometry relative="1" as="geometry">
            <Array as="points">
              <mxPoint x="450" y="290" />
              <mxPoint x="230" y="290" />
            </Array>
          </mxGeometry>
        </mxCell>
        <mxCell id="A8Cqn2Xo1SjwjiJ984Io-39" value="Sensors Sample Period" style="edgeLabel;html=1;align=center;verticalAlign=middle;resizable=0;points=[];labelBackgroundColor=none;fontColor=#143642;" parent="A8Cqn2Xo1SjwjiJ984Io-9" vertex="1" connectable="0">
          <mxGeometry x="0.32" relative="1" as="geometry">
            <mxPoint x="-39" y="20" as="offset" />
          </mxGeometry>
        </mxCell>
        <mxCell id="A8Cqn2Xo1SjwjiJ984Io-35" style="edgeStyle=orthogonalEdgeStyle;rounded=0;orthogonalLoop=1;jettySize=auto;html=1;exitX=0.5;exitY=1;exitDx=0;exitDy=0;entryX=0.5;entryY=0;entryDx=0;entryDy=0;endArrow=classic;endFill=1;labelBackgroundColor=none;strokeColor=#A8201A;fontColor=#143642;" parent="OwLx9ksk2gSbWlh4JtMf-1" source="W-xhEfi5Vv7jOIvLi4YA-9" target="A8Cqn2Xo1SjwjiJ984Io-0" edge="1">
          <mxGeometry relative="1" as="geometry">
            <Array as="points">
              <mxPoint x="450" y="290" />
              <mxPoint x="670" y="290" />
            </Array>
          </mxGeometry>
        </mxCell>
        <mxCell id="A8Cqn2Xo1SjwjiJ984Io-40" value="Camera Sample Period" style="edgeLabel;align=center;verticalAlign=middle;resizable=0;points=[];labelBackgroundColor=none;fontColor=#143642;labelBorderColor=none;html=1;" parent="A8Cqn2Xo1SjwjiJ984Io-35" vertex="1" connectable="0">
          <mxGeometry x="-0.4438" y="1" relative="1" as="geometry">
            <mxPoint x="150" y="21" as="offset" />
          </mxGeometry>
        </mxCell>
        <mxCell id="A8Cqn2Xo1SjwjiJ984Io-46" style="edgeStyle=orthogonalEdgeStyle;rounded=0;orthogonalLoop=1;jettySize=auto;html=1;exitX=0.5;exitY=1;exitDx=0;exitDy=0;entryX=0.5;entryY=0;entryDx=0;entryDy=0;endArrow=classic;endFill=1;labelBackgroundColor=#DAD2D8;strokeColor=#A8201A;fontColor=#143642;" parent="OwLx9ksk2gSbWlh4JtMf-1" source="W-xhEfi5Vv7jOIvLi4YA-9" target="A8Cqn2Xo1SjwjiJ984Io-44" edge="1">
          <mxGeometry relative="1" as="geometry" />
        </mxCell>
        <mxCell id="W-xhEfi5Vv7jOIvLi4YA-9" value="Idle" style="rounded=0;whiteSpace=wrap;html=1;fillColor=#FAE5C7;strokeColor=#0F8B8D;fontColor=#143642;" parent="OwLx9ksk2gSbWlh4JtMf-1" vertex="1">
          <mxGeometry x="390" y="230" width="120" height="40" as="geometry" />
        </mxCell>
        <mxCell id="A8Cqn2Xo1SjwjiJ984Io-31" style="edgeStyle=orthogonalEdgeStyle;rounded=0;orthogonalLoop=1;jettySize=auto;html=1;exitX=0.5;exitY=1;exitDx=0;exitDy=0;entryX=0.5;entryY=0;entryDx=0;entryDy=0;endArrow=classic;endFill=1;labelBackgroundColor=#DAD2D8;strokeColor=#A8201A;fontColor=#143642;" parent="OwLx9ksk2gSbWlh4JtMf-1" source="W-xhEfi5Vv7jOIvLi4YA-10" target="A8Cqn2Xo1SjwjiJ984Io-11" edge="1">
          <mxGeometry relative="1" as="geometry">
            <Array as="points">
              <mxPoint x="230" y="360" />
            </Array>
          </mxGeometry>
        </mxCell>
        <mxCell id="W-xhEfi5Vv7jOIvLi4YA-10" value="Sample Sensors" style="rounded=0;whiteSpace=wrap;html=1;fillColor=#FAE5C7;strokeColor=#0F8B8D;fontColor=#143642;" parent="OwLx9ksk2gSbWlh4JtMf-1" vertex="1">
          <mxGeometry x="170" y="350" width="120" height="40" as="geometry" />
        </mxCell>
        <mxCell id="A8Cqn2Xo1SjwjiJ984Io-36" style="edgeStyle=orthogonalEdgeStyle;rounded=0;orthogonalLoop=1;jettySize=auto;html=1;exitX=0.5;exitY=1;exitDx=0;exitDy=0;entryX=0.5;entryY=0;entryDx=0;entryDy=0;endArrow=classic;endFill=1;labelBackgroundColor=#DAD2D8;strokeColor=#A8201A;fontColor=#143642;" parent="OwLx9ksk2gSbWlh4JtMf-1" source="A8Cqn2Xo1SjwjiJ984Io-0" target="A8Cqn2Xo1SjwjiJ984Io-1" edge="1">
          <mxGeometry relative="1" as="geometry" />
        </mxCell>
        <mxCell id="A8Cqn2Xo1SjwjiJ984Io-0" value="Get Image Frame" style="rounded=0;whiteSpace=wrap;html=1;fillColor=#FAE5C7;strokeColor=#0F8B8D;fontColor=#143642;" parent="OwLx9ksk2gSbWlh4JtMf-1" vertex="1">
          <mxGeometry x="609.9999999999999" y="350" width="120" height="40" as="geometry" />
        </mxCell>
        <mxCell id="A8Cqn2Xo1SjwjiJ984Io-37" style="edgeStyle=orthogonalEdgeStyle;rounded=0;orthogonalLoop=1;jettySize=auto;html=1;exitX=0.5;exitY=1;exitDx=0;exitDy=0;entryX=0.5;entryY=0;entryDx=0;entryDy=0;endArrow=classic;endFill=1;labelBackgroundColor=#DAD2D8;strokeColor=#A8201A;fontColor=#143642;" parent="OwLx9ksk2gSbWlh4JtMf-1" source="A8Cqn2Xo1SjwjiJ984Io-1" target="A8Cqn2Xo1SjwjiJ984Io-4" edge="1">
          <mxGeometry relative="1" as="geometry" />
        </mxCell>
        <mxCell id="A8Cqn2Xo1SjwjiJ984Io-1" value="Image Processing" style="rounded=0;whiteSpace=wrap;html=1;fillColor=#FAE5C7;strokeColor=#0F8B8D;fontColor=#143642;" parent="OwLx9ksk2gSbWlh4JtMf-1" vertex="1">
          <mxGeometry x="609.9999999999999" y="430" width="120" height="40" as="geometry" />
        </mxCell>
        <mxCell id="A8Cqn2Xo1SjwjiJ984Io-38" value="No" style="edgeStyle=orthogonalEdgeStyle;rounded=0;orthogonalLoop=1;jettySize=auto;html=1;exitX=1;exitY=0.5;exitDx=0;exitDy=0;endArrow=classic;endFill=1;labelBackgroundColor=none;strokeColor=#A8201A;fontColor=#143642;" parent="OwLx9ksk2gSbWlh4JtMf-1" source="A8Cqn2Xo1SjwjiJ984Io-4" edge="1">
          <mxGeometry x="-0.9692" y="10" relative="1" as="geometry">
            <mxPoint x="450" y="210" as="targetPoint" />
            <Array as="points">
              <mxPoint x="770" y="560" />
              <mxPoint x="770" y="210" />
            </Array>
            <mxPoint as="offset" />
          </mxGeometry>
        </mxCell>
        <mxCell id="A8Cqn2Xo1SjwjiJ984Io-41" value="Yes" style="edgeStyle=orthogonalEdgeStyle;rounded=0;orthogonalLoop=1;jettySize=auto;html=1;exitX=0;exitY=0.5;exitDx=0;exitDy=0;endArrow=classic;endFill=1;labelBackgroundColor=none;strokeColor=#A8201A;fontColor=#143642;" parent="OwLx9ksk2gSbWlh4JtMf-1" source="A8Cqn2Xo1SjwjiJ984Io-4" edge="1">
          <mxGeometry x="-0.9474" y="-10" relative="1" as="geometry">
            <mxPoint x="450" y="800" as="targetPoint" />
            <Array as="points">
              <mxPoint x="560" y="560" />
              <mxPoint x="560" y="800" />
            </Array>
            <mxPoint as="offset" />
          </mxGeometry>
        </mxCell>
        <mxCell id="A8Cqn2Xo1SjwjiJ984Io-4" value="&lt;div&gt;Is there a &lt;br&gt;&lt;/div&gt;&lt;div&gt;parking space available?&lt;/div&gt;" style="rhombus;whiteSpace=wrap;html=1;fillColor=#FAE5C7;strokeColor=#0F8B8D;fontColor=#143642;strokeWidth=2;" parent="OwLx9ksk2gSbWlh4JtMf-1" vertex="1">
          <mxGeometry x="619.9999999999999" y="510" width="100" height="100" as="geometry" />
        </mxCell>
        <mxCell id="A8Cqn2Xo1SjwjiJ984Io-16" style="edgeStyle=orthogonalEdgeStyle;rounded=0;orthogonalLoop=1;jettySize=auto;html=1;exitX=1;exitY=0.5;exitDx=0;exitDy=0;entryX=0.5;entryY=0;entryDx=0;entryDy=0;endArrow=classic;endFill=1;labelBackgroundColor=none;strokeColor=#A8201A;fontColor=#143642;" parent="OwLx9ksk2gSbWlh4JtMf-1" source="A8Cqn2Xo1SjwjiJ984Io-11" target="A8Cqn2Xo1SjwjiJ984Io-14" edge="1">
          <mxGeometry relative="1" as="geometry" />
        </mxCell>
        <mxCell id="A8Cqn2Xo1SjwjiJ984Io-18" value="Yes" style="edgeLabel;html=1;align=center;verticalAlign=middle;resizable=0;points=[];labelBackgroundColor=none;fontColor=#143642;" parent="A8Cqn2Xo1SjwjiJ984Io-16" vertex="1" connectable="0">
          <mxGeometry x="-0.7176" y="-3" relative="1" as="geometry">
            <mxPoint x="-3" y="-13" as="offset" />
          </mxGeometry>
        </mxCell>
        <mxCell id="A8Cqn2Xo1SjwjiJ984Io-17" style="edgeStyle=orthogonalEdgeStyle;rounded=0;orthogonalLoop=1;jettySize=auto;html=1;exitX=0;exitY=0.5;exitDx=0;exitDy=0;entryX=0.5;entryY=0;entryDx=0;entryDy=0;endArrow=classic;endFill=1;labelBackgroundColor=none;strokeColor=#A8201A;fontColor=#143642;" parent="OwLx9ksk2gSbWlh4JtMf-1" source="A8Cqn2Xo1SjwjiJ984Io-11" target="A8Cqn2Xo1SjwjiJ984Io-15" edge="1">
          <mxGeometry relative="1" as="geometry" />
        </mxCell>
        <mxCell id="A8Cqn2Xo1SjwjiJ984Io-19" value="No" style="edgeLabel;html=1;align=center;verticalAlign=middle;resizable=0;points=[];labelBackgroundColor=none;fontColor=#143642;" parent="A8Cqn2Xo1SjwjiJ984Io-17" vertex="1" connectable="0">
          <mxGeometry x="-0.6133" y="4" relative="1" as="geometry">
            <mxPoint x="7" y="-14" as="offset" />
          </mxGeometry>
        </mxCell>
        <mxCell id="A8Cqn2Xo1SjwjiJ984Io-11" value="Low Luminosity Conditions?" style="rhombus;whiteSpace=wrap;html=1;fillColor=#FAE5C7;strokeColor=#0F8B8D;fontColor=#143642;strokeWidth=2;" parent="OwLx9ksk2gSbWlh4JtMf-1" vertex="1">
          <mxGeometry x="180" y="420" width="100" height="100" as="geometry" />
        </mxCell>
        <mxCell id="A8Cqn2Xo1SjwjiJ984Io-29" style="edgeStyle=orthogonalEdgeStyle;rounded=0;orthogonalLoop=1;jettySize=auto;html=1;exitX=0.5;exitY=1;exitDx=0;exitDy=0;entryX=0.5;entryY=0;entryDx=0;entryDy=0;endArrow=classic;endFill=1;labelBackgroundColor=#DAD2D8;strokeColor=#A8201A;fontColor=#143642;" parent="OwLx9ksk2gSbWlh4JtMf-1" source="A8Cqn2Xo1SjwjiJ984Io-14" target="A8Cqn2Xo1SjwjiJ984Io-24" edge="1">
          <mxGeometry relative="1" as="geometry" />
        </mxCell>
        <mxCell id="A8Cqn2Xo1SjwjiJ984Io-14" value="&lt;div&gt;Power ON&lt;/div&gt;&lt;div&gt;lamp&lt;/div&gt;" style="rounded=0;whiteSpace=wrap;html=1;fillColor=#FAE5C7;strokeColor=#0F8B8D;fontColor=#143642;" parent="OwLx9ksk2gSbWlh4JtMf-1" vertex="1">
          <mxGeometry x="280" y="500" width="120" height="40" as="geometry" />
        </mxCell>
        <mxCell id="A8Cqn2Xo1SjwjiJ984Io-32" style="edgeStyle=orthogonalEdgeStyle;rounded=0;orthogonalLoop=1;jettySize=auto;html=1;exitX=0.5;exitY=1;exitDx=0;exitDy=0;endArrow=classic;endFill=1;labelBackgroundColor=#DAD2D8;strokeColor=#A8201A;fontColor=#143642;" parent="OwLx9ksk2gSbWlh4JtMf-1" source="A8Cqn2Xo1SjwjiJ984Io-15" edge="1">
          <mxGeometry relative="1" as="geometry">
            <mxPoint x="20" y="560" as="targetPoint" />
            <Array as="points">
              <mxPoint x="120" y="560" />
            </Array>
          </mxGeometry>
        </mxCell>
        <mxCell id="A8Cqn2Xo1SjwjiJ984Io-15" value="&lt;div&gt;Power OFF&lt;/div&gt;&lt;div&gt;lamp&lt;/div&gt;" style="rounded=0;whiteSpace=wrap;html=1;fillColor=#FAE5C7;strokeColor=#0F8B8D;fontColor=#143642;" parent="OwLx9ksk2gSbWlh4JtMf-1" vertex="1">
          <mxGeometry x="60" y="500" width="120" height="40" as="geometry" />
        </mxCell>
        <mxCell id="A8Cqn2Xo1SjwjiJ984Io-20" style="edgeStyle=orthogonalEdgeStyle;rounded=0;orthogonalLoop=1;jettySize=auto;html=1;exitX=1;exitY=0.5;exitDx=0;exitDy=0;endArrow=classic;endFill=1;labelBackgroundColor=none;strokeColor=#A8201A;fontColor=#143642;" parent="OwLx9ksk2gSbWlh4JtMf-1" source="A8Cqn2Xo1SjwjiJ984Io-24" edge="1">
          <mxGeometry relative="1" as="geometry">
            <mxPoint x="450" y="620" as="targetPoint" />
          </mxGeometry>
        </mxCell>
        <mxCell id="A8Cqn2Xo1SjwjiJ984Io-21" value="Yes" style="edgeLabel;html=1;align=center;verticalAlign=middle;resizable=0;points=[];labelBackgroundColor=none;fontColor=#143642;" parent="A8Cqn2Xo1SjwjiJ984Io-20" vertex="1" connectable="0">
          <mxGeometry x="-0.7176" y="-3" relative="1" as="geometry">
            <mxPoint x="2" y="-13" as="offset" />
          </mxGeometry>
        </mxCell>
        <mxCell id="FZ7wIxy7LVfMkmSLyRUL-3" value="No" style="edgeStyle=orthogonalEdgeStyle;rounded=0;orthogonalLoop=1;jettySize=auto;html=1;entryX=0.5;entryY=0;entryDx=0;entryDy=0;endArrow=classic;endFill=1;labelBackgroundColor=none;strokeColor=#A8201A;fontColor=#143642;" edge="1" parent="OwLx9ksk2gSbWlh4JtMf-1" source="A8Cqn2Xo1SjwjiJ984Io-24" target="FZ7wIxy7LVfMkmSLyRUL-2">
          <mxGeometry x="-0.8462" y="-10" relative="1" as="geometry">
            <mxPoint as="offset" />
          </mxGeometry>
        </mxCell>
        <mxCell id="A8Cqn2Xo1SjwjiJ984Io-24" value="&lt;div&gt;Motion &lt;br&gt;&lt;/div&gt;&lt;div&gt;detected?&lt;/div&gt;" style="rhombus;whiteSpace=wrap;html=1;fillColor=#FAE5C7;strokeColor=#0F8B8D;fontColor=#143642;strokeWidth=2;" parent="OwLx9ksk2gSbWlh4JtMf-1" vertex="1">
          <mxGeometry x="290" y="570" width="100" height="100" as="geometry" />
        </mxCell>
        <mxCell id="A8Cqn2Xo1SjwjiJ984Io-42" style="edgeStyle=orthogonalEdgeStyle;rounded=0;orthogonalLoop=1;jettySize=auto;html=1;exitX=0.5;exitY=1;exitDx=0;exitDy=0;entryX=0.5;entryY=0;entryDx=0;entryDy=0;endArrow=classic;endFill=1;labelBackgroundColor=#DAD2D8;strokeColor=#A8201A;fontColor=#143642;" parent="OwLx9ksk2gSbWlh4JtMf-1" source="A8Cqn2Xo1SjwjiJ984Io-25" target="A8Cqn2Xo1SjwjiJ984Io-30" edge="1">
          <mxGeometry relative="1" as="geometry">
            <Array as="points">
              <mxPoint x="450" y="760" />
              <mxPoint x="450" y="760" />
            </Array>
          </mxGeometry>
        </mxCell>
        <mxCell id="A8Cqn2Xo1SjwjiJ984Io-25" value="&lt;div&gt;Turn-On the lamp&lt;/div&gt;Start Timeout" style="rounded=0;whiteSpace=wrap;html=1;fillColor=#FAE5C7;strokeColor=#0F8B8D;fontColor=#143642;" parent="OwLx9ksk2gSbWlh4JtMf-1" vertex="1">
          <mxGeometry x="390" y="730" width="120" height="40" as="geometry" />
        </mxCell>
        <mxCell id="FZ7wIxy7LVfMkmSLyRUL-7" style="edgeStyle=orthogonalEdgeStyle;rounded=0;orthogonalLoop=1;jettySize=auto;html=1;endArrow=classic;endFill=1;labelBackgroundColor=#DAD2D8;strokeColor=#A8201A;fontColor=#143642;" edge="1" parent="OwLx9ksk2gSbWlh4JtMf-1" source="A8Cqn2Xo1SjwjiJ984Io-26">
          <mxGeometry relative="1" as="geometry">
            <mxPoint x="450" y="800" as="targetPoint" />
            <Array as="points">
              <mxPoint x="290" y="800" />
              <mxPoint x="450" y="800" />
            </Array>
          </mxGeometry>
        </mxCell>
        <mxCell id="A8Cqn2Xo1SjwjiJ984Io-26" value="Turn-Off the lamp" style="rounded=0;whiteSpace=wrap;html=1;fillColor=#FAE5C7;strokeColor=#0F8B8D;fontColor=#143642;" parent="OwLx9ksk2gSbWlh4JtMf-1" vertex="1">
          <mxGeometry x="230" y="730" width="120" height="40" as="geometry" />
        </mxCell>
        <mxCell id="A8Cqn2Xo1SjwjiJ984Io-43" style="edgeStyle=orthogonalEdgeStyle;rounded=0;orthogonalLoop=1;jettySize=auto;html=1;exitX=0.5;exitY=1;exitDx=0;exitDy=0;endArrow=classic;endFill=1;labelBackgroundColor=#DAD2D8;strokeColor=#A8201A;fontColor=#143642;" parent="OwLx9ksk2gSbWlh4JtMf-1" source="A8Cqn2Xo1SjwjiJ984Io-30" edge="1">
          <mxGeometry relative="1" as="geometry">
            <mxPoint x="450" y="210" as="targetPoint" />
            <Array as="points">
              <mxPoint x="450" y="890" />
              <mxPoint x="20" y="890" />
              <mxPoint x="20" y="210" />
            </Array>
          </mxGeometry>
        </mxCell>
        <mxCell id="A8Cqn2Xo1SjwjiJ984Io-30" value="Send data to remote system" style="rounded=0;whiteSpace=wrap;html=1;fillColor=#FAE5C7;strokeColor=#0F8B8D;fontColor=#143642;" parent="OwLx9ksk2gSbWlh4JtMf-1" vertex="1">
          <mxGeometry x="390" y="820" width="120" height="40" as="geometry" />
        </mxCell>
        <mxCell id="A8Cqn2Xo1SjwjiJ984Io-45" style="edgeStyle=orthogonalEdgeStyle;rounded=0;orthogonalLoop=1;jettySize=auto;html=1;exitX=0.5;exitY=1;exitDx=0;exitDy=0;entryX=0.5;entryY=0;entryDx=0;entryDy=0;endArrow=classic;endFill=1;labelBackgroundColor=#DAD2D8;strokeColor=#A8201A;fontColor=#143642;" parent="OwLx9ksk2gSbWlh4JtMf-1" source="A8Cqn2Xo1SjwjiJ984Io-44" target="A8Cqn2Xo1SjwjiJ984Io-25" edge="1">
          <mxGeometry relative="1" as="geometry" />
        </mxCell>
        <mxCell id="A8Cqn2Xo1SjwjiJ984Io-44" value="Request to turn-on the lamp" style="rounded=0;whiteSpace=wrap;html=1;fillColor=#FAE5C7;strokeColor=#0F8B8D;fontColor=#143642;" parent="OwLx9ksk2gSbWlh4JtMf-1" vertex="1">
          <mxGeometry x="390" y="350" width="120" height="40" as="geometry" />
        </mxCell>
        <mxCell id="FZ7wIxy7LVfMkmSLyRUL-6" value="Yes" style="edgeStyle=orthogonalEdgeStyle;rounded=0;orthogonalLoop=1;jettySize=auto;html=1;entryX=0.5;entryY=0;entryDx=0;entryDy=0;endArrow=classic;endFill=1;labelBackgroundColor=none;strokeColor=#A8201A;fontColor=#143642;" edge="1" parent="OwLx9ksk2gSbWlh4JtMf-1" source="FZ7wIxy7LVfMkmSLyRUL-2" target="A8Cqn2Xo1SjwjiJ984Io-26">
          <mxGeometry x="-0.6667" y="10" relative="1" as="geometry">
            <Array as="points">
              <mxPoint x="290" y="690" />
            </Array>
            <mxPoint as="offset" />
          </mxGeometry>
        </mxCell>
        <mxCell id="FZ7wIxy7LVfMkmSLyRUL-8" value="No" style="edgeStyle=orthogonalEdgeStyle;rounded=0;orthogonalLoop=1;jettySize=auto;html=1;exitX=0;exitY=0.5;exitDx=0;exitDy=0;endArrow=classic;endFill=1;labelBackgroundColor=none;strokeColor=#A8201A;fontColor=#143642;" edge="1" parent="OwLx9ksk2gSbWlh4JtMf-1" source="FZ7wIxy7LVfMkmSLyRUL-2">
          <mxGeometry x="-0.7143" y="-10" relative="1" as="geometry">
            <mxPoint x="20" y="690" as="targetPoint" />
            <Array as="points">
              <mxPoint x="90" y="690" />
              <mxPoint x="90" y="690" />
            </Array>
            <mxPoint as="offset" />
          </mxGeometry>
        </mxCell>
        <mxCell id="FZ7wIxy7LVfMkmSLyRUL-2" value="&lt;div&gt;Light ON &lt;br&gt;&lt;/div&gt;&lt;div&gt;Timeout?&lt;/div&gt;" style="rhombus;whiteSpace=wrap;html=1;fillColor=#FAE5C7;strokeColor=#0F8B8D;fontColor=#143642;strokeWidth=2;" vertex="1" parent="OwLx9ksk2gSbWlh4JtMf-1">
          <mxGeometry x="140" y="650" width="90" height="80" as="geometry" />
        </mxCell>
        <mxCell id="b9bzMtO-1qeasKwuusVg-0" value="System Configuration" style="rounded=0;whiteSpace=wrap;html=1;fillColor=#FAE5C7;strokeColor=#0F8B8D;fontColor=#143642;" vertex="1" parent="OwLx9ksk2gSbWlh4JtMf-1">
          <mxGeometry x="390" y="140" width="120" height="40" as="geometry" />
        </mxCell>
      </root>
    </mxGraphModel>
  </diagram>
  <diagram id="EkSksENsHcnxvuL33Jcc" name="SeqDiagram">
    <mxGraphModel dx="1422" dy="793" grid="1" gridSize="10" guides="1" tooltips="1" connect="1" arrows="1" fold="1" page="1" pageScale="1" pageWidth="850" pageHeight="1100" math="0" shadow="0">
      <root>
        <mxCell id="IwnCJMJT510FJT5TPm18-0" />
        <mxCell id="IwnCJMJT510FJT5TPm18-1" parent="IwnCJMJT510FJT5TPm18-0" />
      </root>
    </mxGraphModel>
  </diagram>
</mxfile>
